# xmcd CD database file
#
# Track frame offsets:
#	150
#	15424
#	30119
#	45870
#	62004
#	76319
#	92324
#	113956
#	130235
#	145363
#	164116
#	180174
#	194435
#	211530
#	226711
#	242232
#	262142
#	280032
#	293210
#	312483
#
# Disc length: 4422 seconds
#
# Revision: 0
# Processed by: cddbd v1.5.2PL0 Copyright (c) Steve Scherf et al.
# Submitted via: CDex 1.70beta2
#
DISCID=07114414
DTITLE=ERG - Nu Country Traxx Vol. 154
DYEAR=2007
DGENRE=Country
TTITLE0=Toby Keith - High Maintenance Woman
TTITLE1=Craig Morgan - Tough
TTITLE2=Rodney Atkins - These Are My People
TTITLE3=Big and Rich - Lost In This Moment
TTITLE4=Jason Aldean - Johnny Cash
TTITLE5=The Dixie Chicks - Neighbour
TTITLE6=Lee Ann Womack - The Weight
TTITLE7=Charlie Major - Better World
TTITLE8=Brad Johner - Your Love Is My Luck
TTITLE9=George Canyon - I Want You To Live
TTITLE10=John Anderson - A Woman Knows
TTITLE11=Lee Brice - She Ain't Right
TTITLE12=Aaron Pritchett - The Weight
TTITLE13=Damian Marshall - Built To Last
TTITLE14=Sarah Buxton - That Kind Of Day
TTITLE15=Little Big Town - A Little More You
TTITLE16=Little Texas - Missing Years
TTITLE17=Deryl Dodd - Wearin' A Hole
TTITLE18=Kristina Cornell - Little Red Balloon
TTITLE19=Darryl Worley - Living In The Here And Now
EXTD=YEAR: 2007
EXTT0=
EXTT1=
EXTT2=
EXTT3=
EXTT4=
EXTT5=
EXTT6=
EXTT7=
EXTT8=
EXTT9=
EXTT10=
EXTT11=
EXTT12=
EXTT13=
EXTT14=
EXTT15=
EXTT16=
EXTT17=
EXTT18=
EXTT19=
PLAYORDER=
